<svg xmlns="http://www.w3.org/2000/svg" fill="none" viewBox="0 0 180 42" height="42" width="180">
<g clip-path="url(#clip0_642_226)">
<path fill="#C73C40" d="M21.6129 11.0664C22.663 12.4408 22.9492 12.8096 24.5086 14.7933C24.1413 16.028 23.7492 17.3223 22.9537 19.2167C21.4281 19.3541 19.8507 19.4412 18.2575 19.4755C17.4575 18.0667 16.7522 16.8252 15.968 15.2515C16.6485 13.9824 17.2953 12.7661 17.9556 11.2702C19.1972 11.2427 20.4254 11.174 21.6107 11.0687M14.7399 15.2286L17.6153 20.6461L23.7222 20.3071L25.6962 14.5849L22.0005 9.93018L17.3021 10.189L14.7376 15.2286H14.7399Z"></path>
<path fill="#231F20" d="M26.1379 12.4727C25.5407 11.7787 24.9391 11.0869 24.3374 10.3951C23.9183 9.91174 23.4969 9.42611 23.0755 8.94048C23.1724 7.53857 23.2174 6.75057 22.9876 5.5113C23.6523 5.38989 24.2698 5.25016 24.8287 5.09439C25.9486 5.94195 27.019 6.75744 28.3846 7.91425C28.8285 9.31616 29.0809 10.1431 29.2094 11.7924C28.2832 12.0513 27.2511 12.278 26.1334 12.4727M24.3509 4.19873C23.6523 4.40718 22.7577 4.59502 21.8879 4.65229C22.1831 6.14812 22.1493 7.76993 22.1087 9.29096C22.645 9.92777 25.8157 13.6754 25.8157 13.6754L30.255 12.6789L29.1598 7.46527C29.1598 7.46527 25.1892 4.56066 24.3509 4.20102"></path>
<path fill="#231F20" d="M24.6011 3.18178C23.729 2.21282 23.1972 1.6264 22.0727 0.907118C22.0885 0.895664 22.404 0.771966 22.4197 0.760513C23.6524 1.16826 24.6349 1.71573 26.2641 2.45105C27.5171 3.40627 28.2472 3.96062 29.2815 5.19989C29.0269 5.38544 28.7159 5.5664 28.3531 5.7405C27.3097 4.98456 26.2101 4.19427 24.6011 3.18178ZM30.4556 5.6649C30.4556 5.6649 28.4838 3.26196 26.5503 1.90128L21.489 0L20.3375 0.648268C20.3375 0.648268 22.8028 2.19449 23.9881 3.66512L28.7632 6.73237L30.4578 5.6649H30.4556Z"></path>
<path fill="#231F20" d="M34.3631 16.6739C33.678 15.6775 32.9389 14.6237 31.6747 13.1531C31.5395 11.8932 31.3885 10.5875 30.8522 8.98633C31.3479 8.7458 31.7716 8.49154 32.1141 8.22581C33.0493 9.08254 33.9417 9.92093 34.9129 11.1236C35.3478 12.4041 35.7918 13.7327 36.0306 15.6591C35.6002 16.0119 35.0414 16.3509 34.3631 16.6762M29.6826 8.27392C30.2392 10.0011 30.6178 11.7008 30.7395 13.515C31.9451 14.9673 33.0944 16.454 34.1219 18.0392C35.1292 17.5971 36.0915 17.1 36.9095 16.3441C36.6391 14.3901 36.2379 12.5163 35.5371 10.6677C34.4036 9.32535 33.171 8.09066 31.8414 6.94531C31.1902 7.54548 30.4894 7.92115 29.6826 8.27392Z"></path>
<path fill="#231F20" d="M30.6764 15.6844C31.5372 16.8115 32.3597 17.8972 33.2251 19.3312C32.9727 20.7308 32.7 22.1923 31.9969 24.2242C30.8387 24.5494 29.5429 24.8381 28.139 25.0855C27.3999 23.8141 26.8973 22.962 25.6219 21.0676C26.192 19.6336 26.7328 18.2592 27.1813 16.461C28.4477 16.2388 29.6195 15.9776 30.6742 15.6844M27.5373 26.3591C29.2748 26.0728 30.9941 25.7154 32.682 25.2137C33.3535 23.2094 33.9304 21.1661 34.2211 19.0655C33.2071 17.4528 32.1209 15.8998 30.9288 14.4131C29.4145 14.8621 27.8776 15.1828 26.3205 15.4439C25.7909 17.4139 25.1351 19.3289 24.3419 21.2073C25.4574 22.8933 26.5503 24.5953 27.5373 26.3591Z"></path>
<path fill="#231F20" d="M18.1178 31.983C17.2255 30.5788 16.5562 29.5205 15.7156 28.1003C16.3196 27.0717 17.1894 25.5782 18.2035 23.7434C19.8778 23.709 21.5386 23.6219 23.1386 23.4799C23.8461 24.6207 24.5875 25.8187 25.57 27.5253C24.8467 28.7485 24.085 30.0267 22.8817 31.7287C21.3313 31.8662 19.7291 31.9509 18.1178 31.983ZM23.7335 22.2544C21.6693 22.4514 19.5961 22.5613 17.5229 22.5888C16.4953 24.4351 15.4542 26.2723 14.3816 28.0865C15.3844 29.761 16.4187 31.4126 17.4733 33.0573C19.4722 33.0276 21.4642 32.9245 23.454 32.7366C24.6687 31.0186 25.8269 29.2685 26.8703 27.4405C25.8607 25.6927 24.8219 23.9587 23.7335 22.2544Z"></path>
<path fill="#231F20" d="M9.93547 12.8804C9.69661 11.6961 9.46224 10.4637 9.4352 8.97935C11.0735 7.15366 11.5805 6.58328 12.252 5.8136C13.0092 5.89836 13.8002 5.95792 14.6047 5.99686C14.8661 6.92001 15.1613 7.9073 15.8193 9.39855C15.292 10.4179 14.7331 11.49 13.7258 13.1713C12.4323 13.1118 11.1614 13.0133 9.93773 12.8804M9.07916 13.9135C9.73942 14.0876 14.2802 14.319 14.2802 14.319C14.3049 14.319 16.9054 9.45353 16.9257 9.41458C16.2947 8.00351 15.8057 6.49852 15.3731 5.01644C14.2914 5.07142 12.0402 4.76904 12.0402 4.76904L8.45044 8.69989C8.55185 12.0374 9.08141 13.9135 9.08141 13.9135"></path>
<path fill="#231F20" d="M9.75295 36.3853C8.86959 35.398 8.02679 34.4474 6.94738 33.0019C7.3147 32.1429 7.71581 31.2221 8.52481 29.685C10.0301 29.8545 11.6008 29.9759 13.1985 30.0469C13.9759 31.2839 14.5303 32.1567 15.6322 33.7693C14.2959 35.7462 14.03 36.1471 13.6785 36.6923C12.3377 36.6304 11.0194 36.5273 9.75295 36.3853ZM16.955 33.7739C15.8891 32.1842 14.8368 30.5875 13.8407 28.9543C11.8397 28.881 9.8521 28.7229 7.86454 28.4893C7.09611 29.9691 6.35923 31.4557 5.75079 33.0088C6.88203 34.4886 8.06285 35.9226 9.33831 37.2833C10.9856 37.4803 12.6374 37.604 14.2937 37.6658C15.1703 36.3624 16.0649 35.0704 16.9528 33.7762"></path>
<path fill="#231F20" d="M1.00501 13.0891C1.86584 12.1568 2.76722 11.1833 4.22071 9.80426C5.01167 10.0494 5.89503 10.2716 6.85726 10.464C6.89106 11.6162 6.9474 12.8349 7.31021 14.6216C6.28263 15.9846 5.4511 17.0887 4.48436 18.4769C3.24045 18.2295 2.09794 17.9431 1.08388 17.6293C0.955437 16.2755 0.83375 14.8644 1.00501 13.0891ZM0.205033 18.5616C1.74866 19.0701 3.32383 19.4435 4.91703 19.7413C6.06404 18.0874 7.24486 16.4542 8.44821 14.8369C8.08991 13.0708 7.85329 11.3367 7.85104 9.53167C6.61163 9.29801 5.388 9.01168 4.18691 8.61768C2.783 9.93254 1.3836 11.252 0.110388 12.6997C-0.0563684 14.6628 -0.0360873 16.6076 0.205033 18.5616Z"></path>
<path fill="#231F20" d="M8.11695 39.3201C7.38232 39.1643 6.70403 38.9902 6.09559 38.7978C5.03196 38.0373 3.93227 37.247 2.54864 35.9046C2.25118 35.0731 2.09569 34.6196 2.07541 33.7262C3.01285 34.0079 4.05846 34.2622 5.1897 34.4867C5.99419 35.435 6.90459 36.5048 8.1823 37.7372C8.10568 38.248 8.03808 38.7749 8.1192 39.3201M9.27523 37.5952C7.9885 36.3124 6.7491 34.9815 5.61786 33.559C4.0855 33.2818 2.57117 32.8901 1.09515 32.4067C1.1222 33.7353 1.18304 34.8234 1.73063 36.0696C2.31428 36.6125 5.09956 38.9467 5.98067 39.5308C6.9136 39.9821 8.29497 40.1608 9.31579 40.3509C9.08369 39.375 9.04988 38.5779 9.27748 37.5975"></path>
<path fill="#231F20" d="M36.9523 19.8032C37.2475 20.7836 37.5247 21.8259 37.5742 23.1866C36.8013 26.909 36.256 27.9146 36.1591 28.0749C35.7467 28.4277 35.2058 28.769 34.5456 29.0943C34.4487 28.2101 34.3067 27.2457 33.8448 25.8484C34.3225 24.4694 34.8543 22.9048 35.2081 20.8157C35.8932 20.495 36.4791 20.156 36.9523 19.8009M38.2796 23.0171C38.1692 21.2647 37.8424 19.7918 37.2497 18.1333C36.4115 18.9053 35.474 19.4642 34.4352 19.92C34.0633 21.9634 33.4369 24.0021 32.8059 25.979C32.9659 25.979 33.6645 29.7472 33.7118 30.5512C34.7552 30.093 35.7489 29.7036 36.5647 28.8629C37.2633 27.1655 38.1737 24.8611 38.2818 23.0148"></path>
<path fill="#231F20" d="M20.7544 39.8971C19.7246 39.9887 18.6587 40.0483 17.5838 40.0689C17.0474 39.4206 16.5044 38.7747 15.9635 38.1287C16.6441 37.2284 17.3269 36.3328 18.0029 35.4302C19.5082 35.4005 21.0023 35.3203 22.4445 35.1943C22.8614 36.0052 23.2535 36.7841 23.5397 37.5973C21.7324 39.1962 20.9527 39.762 20.7544 39.8994M24.7137 37.7118C24.2473 36.4702 23.7695 35.2951 23.1543 34.1177C21.2502 34.3032 19.3392 34.404 17.426 34.4292C16.5134 35.6662 15.5985 36.9009 14.6993 38.1447C15.1117 38.6258 15.5264 39.0999 15.941 39.5787C16.3218 40.0162 16.7004 40.456 17.079 40.8913C18.386 40.8752 19.6953 40.7813 21 40.6828C22.3003 39.7551 23.5262 38.7861 24.7137 37.7118Z"></path>
<path fill="#231F20" d="M26.5075 39.6197C24.7047 40.8361 23.1228 41.3607 21.7955 41.5943C21.5048 41.6607 21.4417 41.4363 21.4575 41.3057C22.3341 40.7605 23.7335 39.7732 25.0022 38.7493C25.8585 38.6004 26.6607 38.4308 27.3999 38.243C27.1587 38.6645 27.0483 39.1982 26.5075 39.6197ZM28.9277 36.9419C27.2016 37.6543 24.725 37.9223 24.725 37.9223C24.725 37.9223 20.9414 41.3446 20.4998 41.5462L20.6733 42.0021C22.6518 41.6378 24.7543 41.1133 26.9311 39.661C27.2038 39.4869 28.8308 37.6566 28.9277 36.9442"></path>
<path fill="#231F20" d="M29.8021 37.2673C29.9192 37.0565 30.0297 36.816 30.1401 36.532C31.1316 35.5172 32.1592 34.4612 33.3445 32.8096C33.7096 32.6401 34.0453 32.466 34.3473 32.2873C33.3693 34.2 31.4448 35.9478 29.8021 37.2673ZM33.4189 31.9552L29.7502 36.3693C29.7705 36.6167 28.5762 38.786 28.5762 38.786C32.1366 36.548 34.6335 33.6755 36.1771 29.7446C35.5146 30.6678 34.4915 31.5382 33.4189 31.9552Z"></path>
<path fill="#231F20" d="M26.2506 35.9732C26.0343 35.2516 25.8044 34.553 25.1982 33.3137C26.1154 32.1019 26.9897 30.9268 28.0106 29.2156C29.3852 28.9774 30.6606 28.6979 31.8031 28.3795C32.0893 29.3577 32.3462 30.3083 32.4071 31.4514C30.4083 34.317 29.597 35.1073 29.4302 35.2539C28.477 35.5265 27.4089 35.767 26.2506 35.9732ZM33.3648 31.4857C33.2702 29.9578 32.9592 28.5009 32.4837 27.0532C30.8116 27.548 29.1193 27.9122 27.3999 28.194C26.3317 29.9624 25.1735 31.6759 23.9183 33.3137C24.6664 34.514 25.072 35.7419 25.4213 37.0521C26.7689 36.8322 28.1052 36.5642 29.4167 36.1885L33.3671 31.4857H33.3648Z"></path>
<path fill="#231F20" d="M49.7858 17.902H59.5996C60.0841 17.902 60.4357 17.815 60.6497 17.6409C60.8638 17.4668 60.972 17.2125 60.972 16.8781C60.972 16.5436 60.8638 16.3146 60.6497 16.1496C60.4357 15.9847 60.0841 15.9 59.5996 15.9H51.0072L53.2989 12.7846H59.6627C59.9917 12.7846 60.2802 12.7159 60.5303 12.5761C60.7804 12.4387 60.9044 12.1821 60.9044 11.8042C60.9044 11.4262 60.7759 11.1926 60.519 11.062C60.2621 10.9314 59.976 10.865 59.6627 10.865H47.663L50.5137 7.07617H59.4712C60.3275 7.07617 61.1027 7.15864 61.7968 7.32586C62.4908 7.49308 63.0835 7.74735 63.5747 8.08866C64.066 8.42998 64.4446 8.85147 64.7082 9.35313C64.9741 9.8525 65.1048 10.4389 65.1048 11.1078C65.1048 11.543 65.0485 11.9279 64.9336 12.2623C64.8186 12.5968 64.6722 12.89 64.4942 13.1442C64.3139 13.3985 64.1088 13.6093 63.8722 13.7765C63.6378 13.9437 63.3967 14.0697 63.1533 14.1567C63.7821 14.3469 64.3139 14.7179 64.7488 15.2677C65.1837 15.8198 65.4023 16.5299 65.4023 17.4027C65.4023 18.0143 65.3099 18.5755 65.1229 19.0909C64.9381 19.6063 64.6226 20.053 64.1787 20.4287C63.737 20.8089 63.1398 21.1044 62.3894 21.322C61.639 21.5397 60.6993 21.6496 59.5703 21.6496H46.9509L49.779 17.902H49.7858Z"></path>
<path fill="#231F20" d="M83.4277 14.2182C83.4277 15.2788 83.2091 16.2615 82.7742 17.171C82.3393 18.0804 81.7376 18.8615 80.9737 19.5235C80.2098 20.1832 79.2994 20.7032 78.2425 21.0812C77.1856 21.4591 76.0341 21.647 74.7924 21.647H65.1927V12.5644H69.65V17.9017H74.7924C75.4076 17.9017 75.9755 17.8192 76.4961 17.652C77.0166 17.4848 77.4628 17.2488 77.8346 16.9442C78.2064 16.6395 78.4994 16.273 78.7135 15.8446C78.9275 15.4163 79.0357 14.9421 79.0357 14.4175C79.0357 13.893 78.9275 13.4371 78.7135 13.0019C78.4994 12.5666 78.1974 12.191 77.8121 11.8794C77.4267 11.5656 76.976 11.3205 76.4623 11.1395C75.9462 10.9563 75.3919 10.8669 74.7902 10.8669H65.1904L68.0185 7.07812H74.7902C76.0476 7.07812 77.2036 7.25222 78.2628 7.6004C79.3196 7.94859 80.2301 8.4388 80.994 9.07103C81.7579 9.70327 82.3551 10.4592 82.7832 11.3365C83.2114 12.2162 83.4255 13.1783 83.4255 14.2228"></path>
<path fill="#C73C40" d="M103.439 7.07602L98.9158 11.2795C98.4133 11.7445 97.9941 12.1339 97.6516 12.4454C97.3091 12.7593 97.0161 13.0204 96.7728 13.2311C96.5294 13.4419 96.3266 13.616 96.1621 13.7534C95.9976 13.8931 95.8511 14.0123 95.7226 14.1131C95.8511 14.2001 95.9931 14.3078 96.1508 14.4383C96.3085 14.5689 96.5136 14.7545 96.7728 14.995C97.0297 15.2332 97.3519 15.5356 97.7372 15.8975C98.1226 16.2617 98.6093 16.7176 99.193 17.2696L103.781 21.6495H97.5232L92.6377 16.8344L87.6034 21.6495H82.0959L86.7674 17.2696C87.3105 16.7611 87.7679 16.3373 88.1375 15.996C88.5093 15.6547 88.818 15.3752 89.0592 15.1576C89.3025 14.94 89.5053 14.7659 89.6698 14.6353C89.8343 14.5048 89.9808 14.3879 90.1093 14.2871C89.9808 14.1841 89.8366 14.0741 89.6811 13.9481C89.5234 13.8244 89.3228 13.6503 89.0817 13.4236C88.8383 13.1991 88.5318 12.915 88.16 12.5737C87.7882 12.2324 87.324 11.7926 86.7674 11.2565L82.3754 7.07373H88.5273L93.0906 11.6047L97.6967 7.07373H103.441L103.439 7.07602Z"></path>
<path fill="#231F20" d="M121.574 7.07617L118.701 10.865H113.579V21.6473H109.144V10.865H102.415L105.286 7.07617H121.574Z"></path>
<path fill="#231F20" d="M138.232 17.902L135.352 21.6473H121.414V7.07617H138.187L135.287 10.865H125.915V12.6082H137.387L134.811 15.9183H125.915V17.902H138.232Z"></path>
<path fill="#231F20" d="M156.584 17.9017L153.707 21.6493H146.435C145.179 21.6493 144.017 21.4591 142.951 21.0835C141.883 20.7055 140.963 20.1855 140.192 19.5258C139.42 18.8661 138.816 18.0827 138.374 17.1732C137.935 16.2661 137.714 15.2811 137.714 14.2205C137.714 13.1599 137.935 12.191 138.374 11.3136C138.813 10.4363 139.42 9.68036 140.192 9.04813C140.965 8.41589 141.885 7.93027 142.951 7.58895C144.019 7.24764 145.179 7.07812 146.435 7.07812H156.584L153.707 10.8669H146.435C145.828 10.8669 145.265 10.954 144.747 11.1281C144.226 11.3022 143.78 11.5473 143.404 11.8588C143.03 12.1704 142.734 12.5437 142.516 12.979C142.299 13.4142 142.191 13.8953 142.191 14.4175C142.191 14.9398 142.297 15.4163 142.507 15.8446C142.714 16.273 143.012 16.6395 143.395 16.9442C143.778 17.2488 144.228 17.4848 144.747 17.652C145.265 17.8192 145.828 17.9017 146.435 17.9017H156.584Z"></path>
<path fill="#231F20" d="M173.927 21.6473H169.512V16.0282H160.983V21.6473H156.528V7.07617H160.983V12.2371H169.512V7.07617H173.927V21.6473Z"></path>
<path fill="#231F20" d="M175.592 9.82726C175.592 9.46991 175.651 9.1538 175.768 8.87662C175.885 8.60174 176.043 8.36809 176.246 8.18254C176.448 7.99699 176.683 7.85497 176.949 7.75647C177.215 7.65797 177.499 7.60986 177.796 7.60986C178.094 7.60986 178.389 7.66026 178.657 7.75647C178.927 7.85497 179.159 7.99699 179.36 8.18254C179.561 8.37038 179.716 8.60174 179.831 8.87662C179.946 9.1515 180 9.46991 180 9.82726C180 10.1846 179.944 10.5007 179.826 10.7756C179.711 11.0528 179.551 11.2841 179.349 11.4697C179.146 11.6575 178.912 11.7996 178.648 11.8981C178.382 11.9943 178.098 12.0424 177.798 12.0424C177.499 12.0424 177.199 11.9943 176.933 11.8981C176.667 11.7996 176.435 11.6575 176.237 11.4697C176.036 11.2841 175.881 11.0505 175.766 10.7756C175.651 10.5007 175.594 10.1846 175.594 9.82726M176.117 9.82726C176.117 10.1159 176.162 10.3702 176.25 10.5855C176.338 10.8008 176.457 10.9795 176.611 11.1215C176.764 11.2635 176.942 11.3712 177.147 11.4445C177.352 11.5178 177.571 11.5544 177.796 11.5544C178.035 11.5544 178.258 11.5178 178.463 11.4491C178.668 11.3804 178.846 11.275 178.995 11.1307C179.144 10.9886 179.261 10.81 179.346 10.5946C179.432 10.3793 179.475 10.1251 179.475 9.82955C179.475 9.53405 179.43 9.28666 179.342 9.07133C179.254 8.85829 179.132 8.67962 178.981 8.53531C178.83 8.39099 178.65 8.28562 178.45 8.21232C178.247 8.13901 178.03 8.10236 177.796 8.10236C177.562 8.10236 177.327 8.13901 177.122 8.21232C176.917 8.28562 176.739 8.39328 176.59 8.53531C176.442 8.67733 176.325 8.856 176.241 9.07133C176.158 9.28666 176.117 9.53863 176.117 9.82955M176.94 8.73918C177.028 8.71169 177.154 8.68878 177.314 8.67504C177.476 8.66129 177.627 8.65442 177.771 8.65442C178.003 8.65442 178.204 8.70253 178.371 8.79874C178.537 8.89724 178.619 9.06446 178.619 9.30498C178.619 9.48366 178.562 9.6211 178.447 9.71502C178.335 9.80894 178.195 9.86391 178.028 9.87537L178.26 9.99219L178.875 10.9039H178.368L177.769 10.0334L177.37 9.90744V10.9039H176.937V8.73689L176.94 8.73918ZM177.681 9.03239C177.62 9.03239 177.562 9.03239 177.508 9.03697C177.451 9.03697 177.406 9.05071 177.375 9.06446V9.66004H177.659C177.821 9.66004 177.945 9.63484 178.033 9.58445C178.123 9.53405 178.166 9.4493 178.166 9.32331C178.166 9.1286 178.006 9.03239 177.683 9.03239"></path>
<path fill="#231F20" d="M51.4308 33.9026H48.6117L47.8478 36.0673H46.9351L49.8443 28.1323H50.2612L53.1817 36.0673H52.215L51.4285 33.9026H51.4308ZM48.9069 33.0986H51.1581L50.3063 30.7208L50.0336 29.5388H50.0224L49.7497 30.7437L48.9092 33.0986H48.9069Z"></path>
<path fill="#231F20" d="M59.1895 34.1474C59.1895 34.5254 59.194 34.8713 59.2007 35.1805C59.2075 35.4897 59.2413 35.7944 59.2999 36.0899H58.7072L58.4886 35.2973H58.4436C58.2971 35.5585 58.0853 35.7738 57.8081 35.9456C57.5287 36.1151 57.2042 36.2021 56.8301 36.2021C56.0977 36.2021 55.5546 35.9685 55.2008 35.4989C54.8448 35.0293 54.669 34.2986 54.669 33.2998C54.669 32.3011 54.8898 31.6253 55.3338 31.1282C55.7777 30.6335 56.3861 30.3861 57.1613 30.3861C57.4318 30.3861 57.6458 30.3998 57.8036 30.4296C57.9591 30.4594 58.1303 30.5075 58.3129 30.5739V28.2534H59.1917V34.1474H59.1895ZM56.9698 35.4187C57.3439 35.4187 57.6391 35.3202 57.8577 35.1232C58.0762 34.9262 58.2295 34.6261 58.3084 34.2253V31.4581C58.1776 31.3527 58.0267 31.2794 57.8577 31.2359C57.6909 31.1901 57.4656 31.1695 57.1884 31.1695C56.6836 31.1695 56.2892 31.339 56.0031 31.678C55.7191 32.017 55.5749 32.5576 55.5749 33.3021C55.5749 33.6068 55.5997 33.8908 55.647 34.152C55.6943 34.4131 55.7732 34.6353 55.8814 34.8209C55.9918 35.0064 56.136 35.153 56.3163 35.2607C56.4966 35.3683 56.7129 35.4233 56.9698 35.4233"></path>
<path fill="#231F20" d="M65.9521 34.1474C65.9521 34.5254 65.9543 34.8713 65.9634 35.1805C65.9701 35.4897 66.0017 35.7944 66.0625 36.0899H65.4699L65.2513 35.2973H65.2084C65.062 35.5585 64.8479 35.7738 64.573 35.9456C64.2935 36.1151 63.969 36.2021 63.595 36.2021C62.8626 36.2021 62.3195 35.9685 61.9635 35.4989C61.6074 35.0293 61.4316 34.2986 61.4316 33.2998C61.4316 32.3011 61.6525 31.6253 62.0964 31.1282C62.5381 30.6335 63.1488 30.3861 63.924 30.3861C64.1944 30.3861 64.4085 30.3998 64.5662 30.4296C64.724 30.4594 64.893 30.5075 65.0778 30.5739V28.2534H65.9566V34.1474H65.9521ZM63.7347 35.4187C64.1088 35.4187 64.404 35.3202 64.6225 35.1232C64.8411 34.9262 64.9921 34.6261 65.0732 34.2253V31.4581C64.9403 31.3527 64.7916 31.2794 64.6225 31.2359C64.4535 31.1901 64.2304 31.1695 63.9533 31.1695C63.4485 31.1695 63.0519 31.339 62.768 31.678C62.484 32.017 62.3398 32.5576 62.3398 33.3021C62.3398 33.6068 62.3646 33.8908 62.4119 34.152C62.4592 34.4131 62.5381 34.6353 62.6485 34.8209C62.7589 35.0064 62.9032 35.153 63.0812 35.2607C63.2592 35.3683 63.48 35.4233 63.7347 35.4233"></path>
<path fill="#231F20" d="M68.4985 28.7894C68.4985 28.6199 68.5549 28.471 68.6698 28.3473C68.7847 28.2259 68.9267 28.1641 69.1025 28.1641C69.2782 28.1641 69.4292 28.2259 69.5532 28.3473C69.6771 28.471 69.7402 28.6176 69.7402 28.7894C69.7402 28.9612 69.6771 29.1033 69.5532 29.2132C69.4292 29.3254 69.2782 29.3827 69.1025 29.3827C68.9267 29.3827 68.7825 29.3277 68.6698 29.2132C68.5549 29.1033 68.4985 28.9612 68.4985 28.7894ZM68.6856 30.4845H69.5644V36.0647H68.6856V30.4845Z"></path>
<path fill="#231F20" d="M71.5745 30.4847H72.4308V29.3806L73.3097 29.124V30.4847H74.8037V31.2658H73.3097V34.3583C73.3097 34.7454 73.357 35.018 73.4517 35.1783C73.5463 35.3387 73.7086 35.4189 73.9339 35.4189C74.1254 35.4189 74.2854 35.3983 74.4161 35.357C74.5468 35.3158 74.6956 35.2631 74.8556 35.1967L75.0539 35.877C74.8556 35.9732 74.6415 36.0511 74.4049 36.113C74.1728 36.1702 73.9181 36.2023 73.6477 36.2023C73.1993 36.2023 72.886 36.074 72.7035 35.8175C72.521 35.5586 72.4286 35.1302 72.4286 34.5278V31.2681H71.5723V30.487L71.5745 30.4847Z"></path>
<path fill="#231F20" d="M76.877 28.7894C76.877 28.6199 76.9333 28.471 77.046 28.3473C77.1609 28.2259 77.3029 28.1641 77.4809 28.1641C77.6589 28.1641 77.8076 28.2259 77.9316 28.3473C78.0555 28.471 78.1164 28.6176 78.1164 28.7894C78.1164 28.9612 78.0555 29.1033 77.9316 29.2132C77.8076 29.3254 77.6567 29.3827 77.4809 29.3827C77.3051 29.3827 77.1609 29.3277 77.046 29.2132C76.9333 29.1033 76.877 28.9612 76.877 28.7894ZM77.064 30.4845H77.9428V36.0647H77.064V30.4845Z"></path>
<path fill="#231F20" d="M82.2559 33.7556L82.5647 34.8162H82.5759L82.8486 33.735L84.079 30.4868H85.0232L82.6841 36.1907H82.31L79.9281 30.4868H80.9399L82.2559 33.7556Z"></path>
<path fill="#231F20" d="M90.8304 35.6203C90.6118 35.799 90.3346 35.9387 90.0011 36.0441C89.6676 36.1495 89.3138 36.2022 88.942 36.2022C88.5251 36.2022 88.1623 36.1312 87.8536 35.9937C87.5448 35.8563 87.2947 35.6593 87.0964 35.4027C86.8981 35.1462 86.7516 34.8392 86.657 34.4818C86.5623 34.1245 86.515 33.7236 86.515 33.2769C86.515 32.324 86.7223 31.6001 87.1415 31.1008C87.5584 30.6037 88.1555 30.354 88.9307 30.354C89.1786 30.354 89.4287 30.3815 89.6766 30.4365C89.9245 30.4937 90.1476 30.5991 90.3459 30.7549C90.5442 30.9106 90.7065 31.1328 90.8304 31.4192C90.9543 31.7055 91.0174 32.0835 91.0174 32.5531C91.0174 32.7982 90.9949 33.0708 90.9521 33.3663H87.4277C87.4277 33.6938 87.4615 33.9848 87.5268 34.2367C87.5922 34.491 87.6936 34.704 87.8333 34.8804C87.973 35.0545 88.1533 35.1897 88.3764 35.2813C88.5995 35.3729 88.8721 35.421 89.1944 35.421C89.4423 35.421 89.6924 35.3775 89.9403 35.2882C90.1882 35.1988 90.3752 35.0935 90.4991 34.9766L90.8281 35.6226L90.8304 35.6203ZM88.942 31.1328C88.5093 31.1328 88.1645 31.2474 87.9031 31.4787C87.644 31.7101 87.4885 32.1041 87.4367 32.6607H90.1589C90.1589 32.0972 90.053 31.6986 89.8389 31.4719C89.627 31.2451 89.3273 31.1306 88.9397 31.1306"></path>
<path fill="#231F20" d="M104.34 30.8213L104.45 29.6485H104.396L103.977 30.7205L101.981 34.2459H101.706L99.5874 30.709L99.1908 29.6485H99.1367L99.2899 30.8098V36.0647H98.4336V28.2534H99.1141L101.519 32.2484L101.881 33.1189H101.902L102.244 32.2278L104.538 28.2534H105.253V36.0647H104.34V30.8213Z"></path>
<path fill="#231F20" d="M107.799 30.8995C108.076 30.7299 108.401 30.6017 108.77 30.5192C109.14 30.4367 109.525 30.3955 109.929 30.3955C110.309 30.3955 110.614 30.4482 110.846 30.5513C111.076 30.6566 111.251 30.7918 111.373 30.959C111.495 31.1262 111.576 31.3095 111.616 31.5111C111.655 31.7104 111.675 31.912 111.675 32.1135C111.675 32.5602 111.664 32.9955 111.641 33.4192C111.621 33.843 111.61 34.2462 111.61 34.6241C111.61 34.899 111.621 35.1602 111.641 35.4053C111.664 35.6527 111.704 35.8772 111.763 36.0856H111.116L110.886 35.3045H110.832C110.767 35.4099 110.683 35.5106 110.584 35.6114C110.485 35.7099 110.366 35.7993 110.228 35.8772C110.088 35.955 109.929 36.0215 109.744 36.0742C109.559 36.1268 109.352 36.152 109.12 36.152C108.887 36.152 108.667 36.1154 108.466 36.0421C108.263 35.9665 108.09 35.8611 107.943 35.7237C107.797 35.5862 107.682 35.4213 107.598 35.2266C107.513 35.0342 107.472 34.8143 107.472 34.5692C107.472 34.2416 107.538 33.969 107.668 33.7491C107.801 33.5292 107.986 33.3551 108.223 33.2245C108.461 33.094 108.745 33.0023 109.079 32.9451C109.412 32.8901 109.78 32.8626 110.183 32.8626H110.485C110.584 32.8626 110.683 32.8695 110.787 32.8855C110.81 32.6633 110.821 32.4617 110.821 32.283C110.821 31.8753 110.74 31.5867 110.58 31.424C110.42 31.2614 110.125 31.1789 109.701 31.1789C109.577 31.1789 109.444 31.1881 109.3 31.2064C109.158 31.2247 109.011 31.2522 108.863 31.2843C108.712 31.3187 108.567 31.3599 108.434 31.408C108.299 31.4561 108.18 31.5111 108.078 31.5706L107.803 30.9018L107.799 30.8995ZM109.358 35.3755C109.563 35.3755 109.746 35.348 109.906 35.2907C110.068 35.2358 110.206 35.1647 110.323 35.08C110.44 34.9952 110.537 34.899 110.614 34.7937C110.69 34.6906 110.747 34.5898 110.783 34.4936V33.5658C110.679 33.559 110.578 33.5544 110.469 33.5498C110.363 33.5475 110.26 33.5452 110.156 33.5452C109.928 33.5452 109.708 33.5567 109.491 33.5842C109.275 33.6094 109.086 33.6575 108.921 33.7285C108.757 33.7995 108.626 33.8957 108.525 34.0171C108.425 34.1385 108.378 34.2943 108.378 34.4798C108.378 34.741 108.468 34.9563 108.651 35.1212C108.833 35.2884 109.068 35.3732 109.354 35.3732"></path>
<path fill="#231F20" d="M117.712 36.0669V32.8851C117.712 32.3055 117.631 31.868 117.466 31.5748C117.302 31.2816 117 31.135 116.56 31.135C116.173 31.135 115.853 31.2404 115.598 31.4534C115.346 31.6641 115.168 31.9321 115.066 32.2506V36.0669H114.19V30.4867H114.805L114.972 31.1671H115.015C115.19 30.9288 115.427 30.7341 115.722 30.5806C116.017 30.4272 116.371 30.3516 116.781 30.3516C117.081 30.3516 117.345 30.3859 117.57 30.4569C117.798 30.5279 117.987 30.6516 118.136 30.8303C118.287 31.009 118.399 31.2495 118.476 31.5496C118.553 31.8497 118.591 32.2322 118.591 32.6927V36.0623H117.712V36.0669Z"></path>
<path fill="#231F20" d="M121.843 30.4847V33.6665C121.843 33.9551 121.858 34.2117 121.892 34.4293C121.926 34.6492 121.982 34.8325 122.063 34.9768C122.142 35.1211 122.255 35.231 122.392 35.3043C122.532 35.3799 122.708 35.4166 122.92 35.4166C123.118 35.4166 123.294 35.3845 123.447 35.3227C123.6 35.2585 123.738 35.1715 123.859 35.0615C123.981 34.9493 124.087 34.821 124.179 34.6744C124.27 34.5301 124.346 34.3743 124.405 34.2117V30.4824H125.281V34.4774C125.281 34.7454 125.29 35.0226 125.308 35.3089C125.326 35.5953 125.358 35.8449 125.401 36.0626H124.797L124.578 35.1806H124.522C124.355 35.4693 124.125 35.7121 123.841 35.9045C123.555 36.0992 123.192 36.1954 122.753 36.1954C122.46 36.1954 122.203 36.1611 121.98 36.0901C121.757 36.0213 121.57 35.8953 121.421 35.7167C121.27 35.538 121.157 35.2975 121.081 34.9974C121.004 34.6973 120.966 34.3148 120.966 33.8543V30.4824H121.845L121.843 30.4847Z"></path>
<path fill="#231F20" d="M127.222 30.4846H128.078V30.173C128.078 29.8317 128.105 29.5317 128.161 29.2797C128.215 29.0277 128.305 28.8215 128.429 28.6612C128.553 28.5008 128.713 28.3817 128.914 28.3038C129.11 28.226 129.356 28.187 129.649 28.187C129.881 28.187 130.088 28.203 130.268 28.2305C130.449 28.2603 130.638 28.3153 130.834 28.4L130.638 29.1468C130.469 29.0712 130.309 29.0231 130.16 29.0025C130.009 28.9796 129.869 28.9681 129.736 28.9681C129.545 28.9681 129.398 28.9979 129.29 29.0575C129.184 29.117 129.108 29.2041 129.058 29.3186C129.011 29.4354 128.982 29.5752 128.97 29.7424C128.959 29.9096 128.954 30.1043 128.954 30.3288V30.4846H130.415V31.2657H128.954V36.0647H128.076V31.2657H127.219V30.4846H127.222Z"></path>
<path fill="#231F20" d="M132.096 30.8995C132.375 30.7299 132.697 30.6017 133.069 30.5192C133.439 30.4367 133.824 30.3955 134.228 30.3955C134.608 30.3955 134.913 30.4482 135.145 30.5513C135.375 30.6566 135.55 30.7918 135.672 30.959C135.794 31.1262 135.875 31.3095 135.913 31.5111C135.954 31.7104 135.974 31.912 135.974 32.1135C135.974 32.5602 135.963 32.9955 135.94 33.4192C135.92 33.843 135.909 34.2462 135.909 34.6241C135.909 34.899 135.92 35.1602 135.94 35.4053C135.963 35.6527 136.003 35.8772 136.062 36.0856H135.415L135.185 35.3045H135.129C135.064 35.4099 134.98 35.5106 134.883 35.6114C134.784 35.7099 134.665 35.7993 134.527 35.8772C134.388 35.955 134.228 36.0215 134.043 36.0742C133.858 36.1268 133.651 36.152 133.419 36.152C133.186 36.152 132.966 36.1154 132.765 36.0421C132.562 35.9665 132.389 35.8611 132.242 35.7237C132.096 35.5862 131.981 35.4213 131.897 35.2266C131.814 35.0342 131.771 34.8143 131.771 34.5692C131.771 34.2416 131.837 33.969 131.967 33.7491C132.098 33.5292 132.285 33.3551 132.522 33.2245C132.761 33.094 133.045 33.0023 133.378 32.9451C133.712 32.8901 134.079 32.8626 134.482 32.8626H134.784C134.883 32.8626 134.982 32.8695 135.086 32.8855C135.109 32.6633 135.12 32.4617 135.12 32.283C135.12 31.8753 135.039 31.5867 134.879 31.424C134.717 31.2614 134.424 31.1789 134 31.1789C133.876 31.1789 133.743 31.1881 133.599 31.2064C133.457 31.2247 133.31 31.2522 133.162 31.2843C133.011 31.3187 132.866 31.3599 132.731 31.408C132.596 31.4561 132.477 31.5111 132.375 31.5706L132.1 30.9018L132.096 30.8995ZM133.653 35.3755C133.858 35.3755 134.041 35.348 134.203 35.2907C134.365 35.2358 134.503 35.1647 134.62 35.08C134.737 34.9952 134.834 34.899 134.91 34.7937C134.987 34.6906 135.043 34.5898 135.079 34.4936V33.5658C134.976 33.559 134.874 33.5544 134.766 33.5498C134.66 33.5475 134.557 33.5452 134.453 33.5452C134.228 33.5452 134.004 33.5567 133.79 33.5842C133.574 33.6094 133.383 33.6575 133.22 33.7285C133.056 33.7995 132.925 33.8957 132.824 34.0171C132.722 34.1385 132.677 34.2943 132.677 34.4798C132.677 34.741 132.767 34.9563 132.95 35.1212C133.132 35.2884 133.367 35.3732 133.653 35.3732"></path>
<path fill="#231F20" d="M142.23 35.6982C142.011 35.8608 141.75 35.9868 141.45 36.0716C141.15 36.1586 140.835 36.1999 140.506 36.1999C140.08 36.1999 139.722 36.1312 139.429 35.9937C139.136 35.8563 138.897 35.6593 138.71 35.4027C138.523 35.1462 138.387 34.8392 138.304 34.4773C138.221 34.1153 138.178 33.7168 138.178 33.2769C138.178 32.3332 138.383 31.6093 138.793 31.1076C139.203 30.6037 139.791 30.354 140.56 30.354C140.911 30.354 141.209 30.3815 141.454 30.4388C141.7 30.4937 141.921 30.5739 142.119 30.677L141.865 31.449C141.698 31.3527 141.511 31.2749 141.306 31.2199C141.101 31.1649 140.88 31.1374 140.648 31.1374C139.607 31.1374 139.088 31.8521 139.088 33.2792C139.088 33.5633 139.115 33.8313 139.169 34.0901C139.224 34.349 139.316 34.5735 139.442 34.7705C139.571 34.9675 139.74 35.1255 139.949 35.2447C140.156 35.3638 140.416 35.4233 140.722 35.4233C140.986 35.4233 141.222 35.3821 141.43 35.2996C141.639 35.2195 141.808 35.1255 141.941 35.0225L142.225 35.7028L142.23 35.6982Z"></path>
<path fill="#231F20" d="M143.568 30.4847H144.425V29.3806L145.301 29.124V30.4847H146.795V31.2658H145.301V34.3583C145.301 34.7454 145.351 35.018 145.443 35.1783C145.538 35.3387 145.7 35.4189 145.925 35.4189C146.117 35.4189 146.277 35.3983 146.408 35.357C146.541 35.3158 146.687 35.2631 146.847 35.1967L147.043 35.877C146.847 35.9732 146.631 36.0511 146.396 36.113C146.162 36.1702 145.91 36.2023 145.639 36.2023C145.191 36.2023 144.88 36.074 144.695 35.8175C144.512 35.5586 144.42 35.1302 144.42 34.5278V31.2681H143.564V30.487L143.568 30.4847Z"></path>
<path fill="#231F20" d="M149.662 30.4847V33.6665C149.662 33.9551 149.677 34.2117 149.711 34.4293C149.745 34.6492 149.801 34.8325 149.882 34.9768C149.961 35.1211 150.072 35.231 150.211 35.3043C150.351 35.3799 150.527 35.4166 150.739 35.4166C150.937 35.4166 151.113 35.3845 151.266 35.3227C151.419 35.2585 151.557 35.1715 151.678 35.0615C151.8 34.9493 151.906 34.821 151.996 34.6744C152.089 34.5301 152.163 34.3743 152.222 34.2117V30.4824H153.098V34.4774C153.098 34.7454 153.107 35.0226 153.125 35.3089C153.143 35.5953 153.175 35.8449 153.218 36.0626H152.614L152.395 35.1806H152.339C152.172 35.4693 151.942 35.7121 151.658 35.9045C151.372 36.0992 151.011 36.1954 150.572 36.1954C150.279 36.1954 150.022 36.1611 149.799 36.0901C149.576 36.0213 149.389 35.8953 149.24 35.7167C149.089 35.538 148.977 35.2975 148.9 34.9974C148.823 34.6973 148.785 34.3148 148.785 33.8543V30.4824H149.664L149.662 30.4847Z"></path>
<path fill="#231F20" d="M158.236 31.3461C158.017 31.2728 157.808 31.2362 157.61 31.2362C157.296 31.2362 157.046 31.3232 156.864 31.4973C156.681 31.6714 156.568 31.8936 156.523 32.1593V36.065H155.645V30.4848H156.26L156.424 31.1651H156.467C156.607 30.9132 156.774 30.7162 156.967 30.5787C157.161 30.4413 157.409 30.3726 157.709 30.3726C157.921 30.3726 158.159 30.4092 158.423 30.4848L158.236 31.3438V31.3461Z"></path>
<path fill="#231F20" d="M160.235 28.7894C160.235 28.6199 160.291 28.471 160.406 28.3473C160.521 28.2259 160.663 28.1641 160.839 28.1641C161.015 28.1641 161.166 28.2259 161.289 28.3473C161.413 28.471 161.477 28.6176 161.477 28.7894C161.477 28.9612 161.413 29.1033 161.289 29.2132C161.166 29.3254 161.015 29.3827 160.839 29.3827C160.663 29.3827 160.519 29.3277 160.406 29.2132C160.291 29.1033 160.235 28.9612 160.235 28.7894ZM160.422 30.4845H161.301V36.0647H160.422V30.4845Z"></path>
<path fill="#231F20" d="M167.556 36.0669V32.8851C167.556 32.3055 167.475 31.868 167.311 31.5748C167.146 31.2816 166.844 31.135 166.405 31.135C166.017 31.135 165.697 31.2404 165.443 31.4534C165.19 31.6641 165.012 31.9321 164.911 32.2506V36.0669H164.034V30.4867H164.649L164.814 31.1671H164.859C165.032 30.9288 165.271 30.7341 165.567 30.5806C165.862 30.4272 166.216 30.3516 166.626 30.3516C166.925 30.3516 167.189 30.3859 167.414 30.4569C167.642 30.5279 167.831 30.6516 167.98 30.8303C168.131 31.009 168.244 31.2495 168.32 31.5496C168.397 31.8497 168.435 32.2322 168.435 32.6927V36.0623H167.556V36.0669Z"></path>
<path fill="#231F20" d="M175.101 36.3237C175.101 37.0453 174.912 37.579 174.535 37.9203C174.159 38.2617 173.6 38.4335 172.861 38.4335C172.422 38.4335 172.068 38.406 171.802 38.3487C171.536 38.2937 171.306 38.2204 171.117 38.1311L171.349 37.3729C171.516 37.4393 171.705 37.5034 171.908 37.563C172.113 37.6226 172.381 37.6523 172.71 37.6523C173.016 37.6523 173.267 37.6248 173.463 37.5699C173.656 37.5149 173.812 37.421 173.929 37.2904C174.046 37.1598 174.127 36.9926 174.17 36.7887C174.213 36.5826 174.236 36.3398 174.236 36.0557V35.5197H174.193C174.046 35.7373 173.859 35.9022 173.632 36.0168C173.404 36.1336 173.109 36.1909 172.744 36.1909C172.005 36.1909 171.459 35.9549 171.112 35.4876C170.765 35.018 170.589 34.2896 170.589 33.3C170.589 32.3104 170.813 31.6255 171.259 31.1284C171.705 30.6336 172.363 30.3862 173.235 30.3862C173.652 30.3862 174.01 30.4206 174.305 30.487C174.603 30.5535 174.869 30.6336 175.103 30.723V36.326L175.101 36.3237ZM172.893 35.4074C173.267 35.4074 173.56 35.3135 173.771 35.1211C173.983 34.9333 174.134 34.6378 174.222 34.2346V31.3758C173.929 31.2338 173.557 31.1651 173.102 31.1651C172.604 31.1651 172.214 31.3369 171.928 31.6782C171.644 32.0195 171.5 32.5555 171.5 33.284C171.5 33.5978 171.525 33.8841 171.576 34.1453C171.628 34.4064 171.707 34.6286 171.818 34.8142C171.926 34.9997 172.07 35.1463 172.246 35.2494C172.422 35.3525 172.638 35.4052 172.893 35.4052"></path>
</g>
<defs>
<clipPath id="clip0_642_226">
<rect fill="white" height="42" width="180"></rect>
</clipPath>
</defs>
</svg>
