<?xml version="1.0" encoding="UTF-8"?>
<svg xmlns="http://www.w3.org/2000/svg" version="1.1" viewBox="0 0 333.57 74.65">
  <defs>
    <style>
      .cls-1 {
        fill: #231f20;
      }
    </style>
  </defs>
  <!-- Generator: Adobe Illustrator 28.7.1, SVG Export Plug-In . SVG Version: 1.2.0 Build 142)  -->
  <g>
    <g id="Layer_1">
      <path class="cls-1" d="M100.15,28.62h17.49c-.08-.87-.27-1.65-.55-2.35-.39-.95-.97-1.76-1.74-2.42-.81-.69-1.7-1.21-2.69-1.55-1-.35-2.1-.52-3.32-.52-2.41,0-4.58.74-6.5,2.21-.92.71-1.61,1.53-2.07,2.47-.32.66-.52,1.38-.62,2.17M126.02,36.47h-25.77c.14.64.37,1.24.68,1.78.49.87,1.21,1.65,2.14,2.32.96.7,1.99,1.22,3.09,1.57,1.1.35,2.28.53,3.53.53,2.02,0,3.78-.31,5.29-.94,1.48-.61,2.72-1.53,3.73-2.75l.79-.95.83.91,4.14,4.53.68.75-.7.72c-1.96,2.03-4.23,3.56-6.79,4.58-2.55,1.01-5.38,1.52-8.49,1.52-2.55,0-4.92-.43-7.1-1.28-2.19-.86-4.18-2.14-5.98-3.84-1.81-1.72-3.17-3.73-4.07-6.04-.9-2.29-1.35-4.85-1.35-7.69s.46-5.41,1.38-7.69c.92-2.3,2.31-4.3,4.15-6.01,1.83-1.69,3.83-2.96,5.98-3.81,2.16-.85,4.48-1.27,6.96-1.27s4.75.37,6.86,1.12c2.12.75,4.05,1.88,5.79,3.38,1.76,1.52,3.09,3.34,3.98,5.44.88,2.09,1.32,4.44,1.32,7.06v6.07h-1.08Z"/>
      <path class="cls-1" d="M60.97,32.29c0,3,.89,5.44,2.68,7.32.9.94,1.88,1.65,2.95,2.11,1.07.46,2.24.69,3.53.69s2.48-.23,3.59-.69c1.12-.47,2.15-1.17,3.11-2.1.95-.93,1.66-1.99,2.13-3.2.48-1.21.72-2.58.72-4.1s-.24-2.91-.71-4.15c-.47-1.23-1.17-2.35-2.11-3.33-.94-.99-1.96-1.72-3.07-2.21-1.1-.48-2.3-.73-3.6-.73s-2.49.24-3.56.72c-1.08.48-2.07,1.22-2.96,2.2-.9.99-1.57,2.1-2.02,3.33-.45,1.24-.68,2.62-.68,4.14M71.23,13.4c2.44,0,4.72.43,6.83,1.28h0c2.1.85,4.03,2.12,5.77,3.82,1.75,1.71,3.07,3.7,3.94,5.97.87,2.26,1.31,4.78,1.31,7.56s-.43,5.32-1.29,7.6c-.87,2.3-2.17,4.34-3.91,6.11-1.73,1.76-3.6,3.08-5.63,3.97-2.04.89-4.22,1.34-6.54,1.34-3.88,0-7.42-1.4-10.61-4.21v16.26h-9.41V13.92h9.41v3.96c1.02-1.1,2.13-2,3.32-2.69,2.04-1.19,4.31-1.78,6.81-1.78Z"/>
      <path class="cls-1" d="M263.99,30.8v19.73h-9.41V13.92h9.41v3.89l.09-.1c.85-.9,1.85-1.69,2.99-2.34h0c1.13-.66,2.31-1.15,3.52-1.47,1.22-.33,2.48-.49,3.78-.49,2.92,0,5.39.62,7.41,1.84,1.59.97,2.88,2.31,3.88,4.01,1.53-1.73,3.21-3.08,5.03-4.05,2.29-1.21,4.79-1.81,7.51-1.81,2.07,0,3.95.32,5.65.96,1.71.65,3.22,1.62,4.53,2.91,1.32,1.3,2.3,2.89,2.95,4.77.64,1.84.96,3.93.96,6.29v22.19h-9.41v-19.99c0-2.91-.58-5.07-1.73-6.46h0c-1.1-1.33-2.8-1.99-5.1-1.99-1.1,0-2.13.18-3.09.52-.95.35-1.84.88-2.66,1.58-.79.67-1.39,1.51-1.8,2.5-.43,1.02-.66,2.22-.7,3.58h0v20.25h-9.41v-19.99c0-1.57-.13-2.9-.4-4.01-.26-1.06-.63-1.91-1.12-2.56-.46-.61-1.07-1.07-1.81-1.38-.78-.33-1.73-.49-2.84-.49s-2.17.18-3.13.55c-.97.37-1.87.92-2.69,1.66-.8.71-1.4,1.6-1.8,2.65-.42,1.09-.63,2.37-.63,3.83"/>
      <path class="cls-1" d="M240.83,33.65V13.92h9.41v36.61h-9.41v-4.02c-.08.08-.15.16-.23.25-.87.9-1.86,1.68-2.97,2.33h0c-1.11.65-2.26,1.14-3.46,1.47-1.21.33-2.45.5-3.72.5-2.07,0-3.95-.32-5.65-.96-1.71-.65-3.23-1.62-4.53-2.92-1.31-1.3-2.3-2.89-2.95-4.76-.64-1.84-.96-3.94-.96-6.3V13.92h9.41v19.99c0,2.92.57,5.07,1.72,6.45,1.1,1.33,2.8,1.99,5.1,1.99,1.12,0,2.17-.18,3.13-.55.97-.37,1.87-.92,2.7-1.66.8-.71,1.39-1.6,1.8-2.65.42-1.09.62-2.37.62-3.83"/>
      <path class="cls-1" d="M211.99,22.87c-1.65,0-3.08.26-4.29.78h0c-1.18.51-2.16,1.28-2.96,2.3-.83,1.06-1.45,2.31-1.86,3.74-.42,1.46-.63,3.12-.63,4.99v15.85h-9.41V13.92h9.41v4.56l.19-.21c.85-.94,1.81-1.79,2.89-2.53h0c1.09-.75,2.21-1.32,3.37-1.71,1.17-.39,2.37-.6,3.6-.62l1.08-.02v1.08s.07,7.32.07,7.32v1.09s-1.07,0-1.07,0h-.39Z"/>
      <path class="cls-1" d="M178,21.9v16.41c0,.71.09,1.33.27,1.87.17.51.42.96.75,1.33h0c.32.36.7.63,1.15.81.47.19,1.03.28,1.67.28,1.25,0,2.48-.64,3.69-1.92l.99-1.05.73,1.24,2.98,5.12.44.76-.65.58c-1.37,1.23-2.82,2.15-4.34,2.77-1.54.63-3.15.94-4.83.94s-3.25-.29-4.7-.88c-1.45-.59-2.77-1.47-3.96-2.64-1.2-1.18-2.1-2.56-2.7-4.15-.59-1.57-.89-3.32-.89-5.26v-16.22h-4.34v-7.99h4.34V3.1h9.41v10.82h9.07v7.99h-9.07Z"/>
      <path class="cls-1" d="M147.73,51.05c-2.53,0-4.89-.43-7.08-1.3-2.19-.86-4.2-2.16-6.02-3.89-1.84-1.74-3.23-3.75-4.15-6.02-.92-2.26-1.37-4.78-1.37-7.55s.48-5.3,1.44-7.58c.96-2.29,2.4-4.31,4.32-6.07,1.91-1.75,4.02-3.06,6.35-3.93,2.32-.87,4.84-1.31,7.56-1.31s5.25.48,7.58,1.43c2.33.95,4.44,2.38,6.33,4.27l.68.68-.61.75-4.27,5.25-.7.86-.84-.73c-1.41-1.22-2.81-2.14-4.2-2.74-1.36-.59-2.73-.88-4.09-.88s-2.66.23-3.85.68c-1.19.45-2.29,1.14-3.3,2.05h0c-.99.89-1.74,1.92-2.23,3.07-.5,1.16-.74,2.46-.74,3.9s.25,2.78.74,3.99c.49,1.21,1.24,2.31,2.25,3.31,1.99,1.99,4.45,2.99,7.36,2.99,1.45,0,2.86-.33,4.22-.99,1.4-.68,2.77-1.71,4.11-3.08l.79-.82.77.84,4.28,4.66.69.76-.72.73c-2.19,2.21-4.56,3.88-7.1,4.99-2.56,1.12-5.28,1.68-8.17,1.68"/>
      <path class="cls-1" d="M27.89,11.21c-1.03,0-1.96.1-2.78.31-.8.2-1.51.49-2.12.88-.55.35-.96.78-1.22,1.3h0c-.27.53-.41,1.17-.41,1.91s.14,1.4.42,1.95c.27.54.69.99,1.25,1.38.63.43,1.66.89,3.09,1.38h0c1.48.51,3.37,1.05,5.66,1.6,2.39.58,4.49,1.28,6.29,2.09,13.19,4.62,14.58,14.76,8.76,21.35-7.09,8.03-27.38,8.5-36.69,4.39-5.83-2.57-9.59-6.76-9.85-11.03.07-8.43,6.41-10,10.7-11.39l7.87,4.25c-3.65.21-6.1,1.5-7.26,2.51-1.62,1.41-1.55,3.24-.08,4.83,2.46,2.67,8.57,3.36,11.43,3.44,3.51.1,7.12-.27,9.63-.95.85-.23,1.58-.57,2.19-1.02.59-.43,1.02-.92,1.31-1.47.28-.54.42-1.17.42-1.87s-.13-1.33-.39-1.85c-.26-.52-.66-.97-1.19-1.35-.6-.43-1.45-.85-2.53-1.26-1.14-.43-2.51-.84-4.12-1.23-1.69-.41-3.17-.79-4.44-1.16-1.29-.38-2.39-.74-3.28-1.08-.92-.35-1.78-.76-2.59-1.22-.82-.47-1.59-.99-2.3-1.56h0c-1.48-1.13-3.44-2.72-4.18-4.44-1.51-3.5-1.48-8.46.15-11.92.84-1.77,2.94-3.11,4.61-4.35,1.62-1.21,3.44-2.12,5.44-2.72,1.99-.6,4.15-.9,6.5-.9,1.5,0,2.99.12,4.5.37,1.49.25,2.97.62,4.46,1.11h0c1.48.49,2.87,1.09,4.16,1.79,1.29.7,2.48,1.51,3.57,2.42l.76.64-.57.81-4.08,5.76-.7.99-.9-.81c-.61-.55-1.33-1.05-2.16-1.51h0c-.85-.47-1.82-.88-2.9-1.25-1.09-.37-2.17-.65-3.24-.83-1.06-.18-2.12-.27-3.18-.27"/>
      <path class="cls-1" d="M263.99,30.8v19.73h-9.41V13.92h9.41v3.89l.09-.1c.85-.9,1.85-1.69,2.99-2.34h0c1.13-.66,2.31-1.15,3.52-1.47,1.22-.33,2.48-.49,3.78-.49,2.92,0,5.39.62,7.41,1.84,1.59.97,2.88,2.31,3.88,4.01,1.53-1.73,3.21-3.08,5.03-4.05,2.29-1.21,4.79-1.81,7.51-1.81,2.07,0,3.95.32,5.65.96,1.71.65,3.22,1.62,4.53,2.91,1.32,1.3,2.3,2.89,2.95,4.77.64,1.84.96,3.93.96,6.29v22.19h-9.41v-19.99c0-2.91-.58-5.07-1.73-6.46h0c-1.1-1.33-2.8-1.99-5.1-1.99-1.1,0-2.13.18-3.09.52-.95.35-1.84.88-2.66,1.58-.79.67-1.39,1.51-1.8,2.5-.43,1.02-.66,2.22-.7,3.58h0v20.25h-9.41v-19.99c0-1.57-.13-2.9-.4-4.01-.26-1.06-.63-1.91-1.12-2.56-.46-.61-1.07-1.07-1.81-1.38-.78-.33-1.73-.49-2.84-.49s-2.17.18-3.13.55c-.97.37-1.87.92-2.69,1.66-.8.71-1.4,1.6-1.8,2.65-.42,1.09-.63,2.37-.63,3.83"/>
      <path class="cls-1" d="M240.83,33.65V13.92h9.41v36.61h-9.41v-4.02c-.08.08-.15.16-.23.25-.87.9-1.86,1.68-2.97,2.33h0c-1.11.65-2.26,1.14-3.46,1.47-1.21.33-2.45.5-3.72.5-2.07,0-3.95-.32-5.65-.96-1.71-.65-3.23-1.62-4.53-2.92-1.31-1.3-2.3-2.89-2.95-4.76-.64-1.84-.96-3.94-.96-6.3V13.92h9.41v19.99c0,2.92.57,5.07,1.72,6.45,1.1,1.33,2.8,1.99,5.1,1.99,1.12,0,2.17-.18,3.13-.55.97-.37,1.87-.92,2.7-1.66.8-.71,1.39-1.6,1.8-2.65.42-1.09.62-2.37.62-3.83"/>
      <path class="cls-1" d="M211.99,22.87c-1.65,0-3.08.26-4.29.78h0c-1.18.51-2.16,1.28-2.96,2.3-.83,1.06-1.45,2.31-1.86,3.74-.42,1.46-.63,3.12-.63,4.99v15.85h-9.41V13.92h9.41v4.56l.19-.21c.85-.94,1.81-1.79,2.89-2.53h0c1.09-.75,2.21-1.32,3.37-1.71,1.17-.39,2.37-.6,3.6-.62l1.08-.02v1.08s.07,7.32.07,7.32v1.09s-1.07,0-1.07,0h-.39Z"/>
      <path class="cls-1" d="M178,21.9v16.41c0,.71.09,1.33.27,1.87.17.51.42.96.75,1.33h0c.32.36.7.63,1.15.81.47.19,1.03.28,1.67.28,1.25,0,2.48-.64,3.69-1.92l.99-1.05.73,1.24,2.98,5.12.44.76-.65.58c-1.37,1.23-2.82,2.15-4.34,2.77-1.54.63-3.15.94-4.83.94s-3.25-.29-4.7-.88c-1.45-.59-2.77-1.47-3.96-2.64-1.2-1.18-2.1-2.56-2.7-4.15-.59-1.57-.89-3.32-.89-5.26v-16.22h-4.34v-7.99h4.34V3.1h9.41v10.82h9.07v7.99h-9.07Z"/>
      <path class="cls-1" d="M147.73,51.05c-2.53,0-4.89-.43-7.08-1.3-2.19-.86-4.2-2.16-6.02-3.89-1.84-1.74-3.23-3.75-4.15-6.02-.92-2.26-1.37-4.78-1.37-7.55s.48-5.3,1.44-7.58c.96-2.29,2.4-4.31,4.32-6.07,1.91-1.75,4.02-3.06,6.35-3.93,2.32-.87,4.84-1.31,7.56-1.31s5.25.48,7.58,1.43c2.33.95,4.44,2.38,6.33,4.27l.68.68-.61.75-4.27,5.25-.7.86-.84-.73c-1.41-1.22-2.81-2.14-4.2-2.74-1.36-.59-2.73-.88-4.09-.88s-2.66.23-3.85.68c-1.19.45-2.29,1.14-3.3,2.05h0c-.99.89-1.74,1.92-2.23,3.07-.5,1.16-.74,2.46-.74,3.9s.25,2.78.74,3.99c.49,1.21,1.24,2.31,2.25,3.31,1.99,1.99,4.45,2.99,7.36,2.99,1.45,0,2.86-.33,4.22-.99,1.4-.68,2.77-1.71,4.11-3.08l.79-.82.77.84,4.28,4.66.69.76-.72.73c-2.19,2.21-4.56,3.88-7.1,4.99-2.56,1.12-5.28,1.68-8.17,1.68"/>
      <path class="cls-1" d="M23,12.4c-1.68,1.07-2.11,3.41-1.22,5.15.27.54.69.99,1.25,1.38,1.91,1.3,6.68,2.49,8.75,2.98,7.47,1.81,17.95,6,18.31,14.88.13,3.03-1.05,6.06-3.26,8.56-7.09,8.03-27.38,8.5-36.69,4.39-5.83-2.57-9.59-6.76-9.85-11.03.07-8.43,6.41-10,10.7-11.39l7.87,4.25c-3.65.21-6.1,1.5-7.26,2.51-1.62,1.41-1.55,3.24-.08,4.83,2.46,2.67,8.57,3.36,11.43,3.44,3.51.1,7.12-.27,9.63-.95.85-.23,1.58-.57,2.19-1.02,1.05-.77,1.69-1.96,1.75-3.21.08-1.54-.59-2.62-1.84-3.46-2.85-1.91-8.58-2.87-10.86-3.53-1.49-.43-2.96-.95-4.33-1.58-5.48-2.48-9.61-6.64-9.06-13.8.48-6.35,5.36-10.15,11.26-11.92,1.99-.6,4.15-.9,6.5-.9,1.5,0,2.99.12,4.5.37,2.94.48,6,1.48,8.62,2.9,1.29.7,2.48,1.51,3.57,2.42l.76.64-.57.81-4.08,5.76-.7.99-.9-.81c-3.32-3-12.04-5.44-16.39-2.68"/>
      <path class="cls-1" d="M46.46,47.8c2.02,1.7,3.76,5.11,3.62,7.58-.14,2.68-1.33,5.27-3.25,7.54-8.27,9.77-35.53,9.79-43.57,0C1.3,60.69.15,58.06,0,55.38c-.13-2.48,1.61-5.88,3.62-7.58,0,1.96-.1,4.6-.1,7.58,0,2.24,5.48,9.45,21.5,9.59,16.02-.13,21.53-7.35,21.53-9.59,0-2.98-.1-5.61-.1-7.58"/>
      <path class="cls-1" d="M192.94,74.61h-1.01v-12.05h1.7v12.05h-.69ZM208.53,74.61h-7.84v-12.05h1.7v10.39h6.83v1.66h-.69ZM218.42,65.19l-2.25,4.53h4.5l-2.25-4.53ZM223.9,74.61h-.8l-1.6-3.22h-6.16l-1.6,3.22h-1.91c2.01-4.01,4.02-8.03,6-12.05h1.18c2.01,4.01,4.01,8.04,6.01,12.05h-1.11ZM235.96,70.69l4.99-8.13h1.35v12.05h-1.7v-8.28l-4.15,6.77h-.96l-4.15-6.75v8.26h-1.7v-12.05h1.35l4.99,8.13ZM251.06,69.33v3.61h7.3v1.66h-9v-12.05h8.76v1.66h-7.06v3.45h6.32v1.66h-6.32ZM273.06,71.46v-8.9h1.7v12.05h-1.29l-7.39-8.9v8.9h-1.7v-12.05h1.28l7.39,8.9ZM284.99,74.61h-1.01v-10.39h-4.26v-1.66h10.21v1.66h-4.26v10.39h-.69ZM301.66,73.82c-.39.27-.87.48-1.44.62-.52.13-1.12.2-1.79.2-.44,0-.88-.04-1.31-.12-.44-.08-.86-.2-1.26-.34-.41-.15-.79-.34-1.12-.56-.34-.22-.63-.46-.86-.73l-.45-.52,1.26-1.08.45.49c.15.16.34.32.57.46.23.15.5.28.79.39.29.11.61.2.93.26.31.05.64.08.98.08.51,0,.95-.05,1.32-.13.38-.09.69-.22.93-.38.22-.15.39-.32.49-.52.11-.2.17-.42.17-.66,0-1.19-1.44-1.53-2.93-1.87h-.05c-2.13-.49-4.31-.99-4.31-3.55,0-.5.11-.98.35-1.43.22-.42.55-.79.99-1.1.38-.27.85-.49,1.41-.63.51-.13,1.1-.21,1.76-.21.33,0,.67.03,1,.07.34.05.67.12.99.22.32.09.63.21.93.35.29.14.56.29.81.47l.57.41-.99,1.33-.54-.37c-.19-.13-.39-.24-.59-.34-.22-.1-.45-.19-.68-.26-.24-.07-.49-.13-.73-.16-.25-.04-.49-.05-.73-.05-.49,0-.92.05-1.28.14-.37.09-.67.22-.9.38-.22.15-.38.33-.49.53-.11.2-.16.43-.16.68,0,.59.33.97.83,1.24.57.31,1.37.49,2.18.67,1.02.23,2.04.47,2.84.95.86.51,1.43,1.28,1.43,2.54,0,.5-.12.99-.36,1.43-.23.42-.56.79-1.01,1.1ZM186.3,63.24v.98h-7.06v3.75h6.32v1.66h-6.32v4.97h-1.7v-12.05h8.76v.69Z"/>
      <path class="cls-1" d="M333.57,8.2c0,4.65-3.65,8.3-8.4,8.3s-8.45-3.65-8.45-8.3,3.75-8.2,8.45-8.2,8.4,3.65,8.4,8.2ZM318.82,8.2c0,3.65,2.7,6.55,6.4,6.55s6.25-2.9,6.25-6.5-2.65-6.6-6.3-6.6-6.35,2.95-6.35,6.55ZM323.87,12.5h-1.9V4.3c.75-.15,1.8-.25,3.15-.25,1.55,0,2.25.25,2.85.6.45.35.8,1,.8,1.8,0,.9-.7,1.6-1.7,1.9v.1c.8.3,1.25.9,1.5,2,.25,1.25.4,1.75.6,2.05h-2.05c-.25-.3-.4-1.05-.65-2-.15-.9-.65-1.3-1.7-1.3h-.9v3.3ZM323.92,7.85h.9c1.05,0,1.9-.35,1.9-1.2,0-.75-.55-1.25-1.75-1.25-.5,0-.85.05-1.05.1v2.35Z"/>
    </g>
  </g>
</svg>